# xmcd
#
# Track frame offsets: 
#        150
#        17693
#        35209
#        48005
#        66600
#        86551
#        106221
#        123051
#        140923
#        156900
#        183364
#        195529
#
# Disc length: 2833 seconds
#
# Revision: 1
# Processed by: cddbd v1.5.2PL0 Copyright (c) Steve Scherf et al.
# Submitted via: ExactAudioCopy v1.0b3
#
DISCID=a50b0f0c
DTITLE=Bering Strait - Bering Strait
DYEAR=2003
DGENRE=Country
TTITLE0=What Is It About You
TTITLE1=Tell Me Tonight
TTITLE2=I Could Be Persuaded
TTITLE3=When Going Home
TTITLE4=I'm Not Missing You
TTITLE5=I Could Use A Hero
TTITLE6=The Trouble With Love
TTITLE7=Jagged Edge of a Broken Heart
TTITLE8=Only This Love
TTITLE9=Bearing Straight
TTITLE10=Porushka-Paranya
TTITLE11=Like A Child (live)
EXTD=
EXTT0=
EXTT1=
EXTT2=
EXTT3=
EXTT4=
EXTT5=
EXTT6=
EXTT7=
EXTT8=
EXTT9=
EXTT10=
EXTT11=
PLAYORDER=
